<svg width="132" height="151" viewBox="0 0 132 151" fill="none" xmlns="http://www.w3.org/2000/svg">
<path d="M113.66 0.716204L57.6715 0.725581C53.1666 0.776726 48.8653 2.61012 45.7087 5.82463C42.5521 9.03915 40.7973 13.3731 40.8281 17.8782L40.8318 28.8427L12.889 37.3053C8.56444 38.615 4.93726 41.589 2.80543 45.573C0.673602 49.557 0.211738 54.2248 1.52145 58.5493L29.5049 150.949L116.469 124.611L113.103 113.496L131.849 114.655L130.81 17.5721C130.763 13.0654 128.931 8.7612 125.717 5.602C122.502 2.4428 118.167 0.685984 113.66 0.716204ZM102.307 117.033L37.0833 136.786L12.392 55.2572C11.9554 53.8156 12.1094 52.2597 12.82 50.9317C13.5306 49.6037 14.7397 48.6124 16.1812 48.1758L70.5339 31.7149C71.9755 31.2783 73.5314 31.4323 74.8594 32.1429C76.1874 32.8535 77.1787 34.0626 77.6153 35.5041L102.307 117.033ZM119.455 17.6943L120.355 102.566L109.589 101.892L88.4858 32.2119C87.1761 27.8873 84.2021 24.2602 80.2181 22.1284C76.2341 19.9965 71.5663 19.5347 67.2418 20.8444L52.186 25.404L52.1662 17.8148C52.1533 17.0663 52.2895 16.3228 52.5669 15.6275C52.8443 14.9322 53.2574 14.2991 53.782 13.7652C54.2933 13.2345 54.9049 12.8106 55.5813 12.5181C56.2577 12.2257 56.9855 12.0705 57.7224 12.0615L113.705 12.0538C114.454 12.0445 115.197 12.1833 115.891 12.4622C116.586 12.741 117.219 13.1544 117.753 13.6786C118.287 14.2028 118.713 14.8274 119.005 15.5166C119.297 16.2057 119.45 16.9458 119.455 17.6943ZM76.6213 71.4079C80.4616 84.0884 63.1106 105.169 63.1106 105.169C63.1106 105.169 36.9794 97.2571 33.1391 84.5766C32.2659 81.6935 32.5738 78.5817 33.9951 75.9257C35.4163 73.2697 37.8344 71.287 40.7174 70.4139C43.6005 69.5407 46.7123 69.8486 49.3683 71.2699C52.0244 72.6911 54.007 75.1092 54.8802 77.9922C54.007 75.1092 54.3149 71.9974 55.7362 69.3413C57.1574 66.6853 59.5755 64.7027 62.4585 63.8295C65.3416 62.9564 68.4534 63.2643 71.1094 64.6855C73.7655 66.1067 75.7481 68.5248 76.6213 71.4079Z" fill="#587BF6"/>
</svg>
