<svg width="123" height="123" viewBox="0 0 123 123" fill="none" xmlns="http://www.w3.org/2000/svg">
<g clip-path="url(#clip0_757_7895)">
<path d="M123 82V123H82C74.8101 122.993 67.7486 121.095 61.5238 117.497C55.2991 113.898 50.1299 108.727 46.535 102.5C50.3986 102.472 54.249 102.046 58.0252 101.229C60.9011 104.825 64.5494 107.728 68.6995 109.722C72.8497 111.716 77.3955 112.751 82 112.75H112.75V82C112.749 77.3938 111.711 72.847 109.713 68.6967C107.715 64.5464 104.808 60.8991 101.208 58.0252C102.033 54.2497 102.466 50.3993 102.5 46.535C108.727 50.1299 113.898 55.2991 117.497 61.5238C121.095 67.7486 122.993 74.8101 123 82ZM92.25 46.125C92.25 33.8919 87.3904 22.1598 78.7403 13.5097C70.0902 4.85958 58.3581 0 46.125 0C33.8919 0 22.1598 4.85958 13.5097 13.5097C4.85958 22.1598 0 33.8919 0 46.125L0 92.25H46.125C58.3539 92.2364 70.0781 87.3725 78.7253 78.7253C87.3725 70.0781 92.2364 58.3539 92.25 46.125V46.125ZM10.25 46.125C10.25 39.0296 12.354 32.0935 16.296 26.1939C20.238 20.2943 25.8409 15.6961 32.3962 12.9808C38.9515 10.2655 46.1648 9.55508 53.1239 10.9393C60.0829 12.3236 66.4752 15.7403 71.4925 20.7575C76.5097 25.7748 79.9264 32.1671 81.3107 39.1261C82.6949 46.0852 81.9845 53.2985 79.2692 59.8538C76.5539 66.4091 71.9557 72.012 66.0561 75.954C60.1565 79.896 53.2204 82 46.125 82H10.25V46.125Z" fill="#587BF6"/>
</g>
<defs>
<clipPath id="clip0_757_7895">
<rect width="123" height="123" fill="white"/>
</clipPath>
</defs>
</svg>
