<svg width="149" height="143" viewBox="0 0 149 143" fill="none" xmlns="http://www.w3.org/2000/svg">
<g clip-path="url(#clip0_767_11173)">
<path d="M66.875 0V39.8932C66.8771 41.614 67.3648 43.2993 68.282 44.7554C69.1992 46.2115 70.5087 47.3791 72.0599 48.1242C73.6111 48.8693 75.341 49.1616 77.0509 48.9674C78.7607 48.7732 80.3811 48.1005 81.7257 47.0265L86.9375 42.858L92.1493 47.031C93.4942 48.1052 95.115 48.778 96.8252 48.972C98.5355 49.166 100.266 48.8734 101.817 48.1277C103.368 47.3821 104.678 46.2137 105.595 44.757C106.512 43.3003 106.999 41.6144 107 39.8932V0H66.875ZM97.7222 40.067L86.9375 31.4402L75.7917 39.8932V8.91667H98.0388L97.7222 40.067ZM98.0833 57.9583H107V107H0V26.75C0 23.2027 1.40915 19.8007 3.91745 17.2924C6.42575 14.7841 9.82773 13.375 13.375 13.375H57.9583V22.2917H13.375C12.1926 22.2917 11.0586 22.7614 10.2225 23.5975C9.38638 24.4336 8.91667 25.5676 8.91667 26.75V27.8289L44.0394 62.9606C46.5884 65.3915 49.9755 66.7476 53.4978 66.7476C57.0201 66.7476 60.4071 65.3915 62.9561 62.9606L67.9584 57.9583H80.5665L69.2602 69.2647C65.0797 73.4451 59.4098 75.7936 53.4978 75.7936C47.5857 75.7936 41.9158 73.4451 37.7353 69.2647L8.91667 40.4415V98.0833H98.0833V57.9583Z" fill="#587BF6"/>
</g>
<g clip-path="url(#clip1_767_11173)">
<path d="M148.12 137.881L130.213 119.974C135.093 114.006 137.492 106.391 136.915 98.703C136.337 91.0154 132.827 83.8439 127.11 78.6718C121.393 73.4998 113.907 70.723 106.2 70.9156C98.4934 71.1083 91.1555 74.2558 85.7042 79.7071C80.2529 85.1584 77.1054 92.4964 76.9127 100.203C76.72 107.91 79.4969 115.396 84.6689 121.113C89.8409 126.83 97.0124 130.34 104.7 130.918C112.388 131.495 120.003 129.096 125.971 124.216L143.878 142.123C144.444 142.67 145.202 142.972 145.989 142.965C146.775 142.958 147.528 142.643 148.084 142.087C148.64 141.531 148.956 140.778 148.962 139.991C148.969 139.205 148.667 138.447 148.12 137.881ZM106.999 125.002C102.253 125.002 97.6124 123.595 93.6657 120.958C89.7189 118.32 86.6427 114.572 84.8262 110.187C83.0097 105.801 82.5345 100.976 83.4605 96.3201C84.3865 91.6646 86.6723 87.3882 90.0288 84.0317C93.3852 80.6753 97.6616 78.3895 102.317 77.4634C106.973 76.5374 111.798 77.0127 116.184 78.8292C120.569 80.6457 124.317 83.7218 126.955 87.6686C129.592 91.6154 130.999 96.2555 130.999 101.002C130.992 107.365 128.461 113.466 123.962 117.965C119.463 122.464 113.362 124.995 106.999 125.002Z" fill="#DBEFFE"/>
</g>
<defs>
<clipPath id="clip0_767_11173">
<rect width="107" height="107" fill="white"/>
</clipPath>
<clipPath id="clip1_767_11173">
<rect width="72" height="72" fill="white" transform="translate(77 71)"/>
</clipPath>
</defs>
</svg>
