<svg width="170" height="170" viewBox="0 0 170 170" fill="none" xmlns="http://www.w3.org/2000/svg">
<g clip-path="url(#clip0_757_7891)">
<path d="M123.66 19.7161L67.6715 19.7255C63.1666 19.7767 58.8653 21.61 55.7087 24.8246C52.5521 28.0391 50.7973 32.373 50.8281 36.8781L50.8318 47.8427L22.889 56.3052C18.5644 57.6149 14.9373 60.5889 12.8054 64.5729C10.6736 68.557 10.2117 73.2247 11.5214 77.5493L39.5049 169.949L126.469 143.611L123.103 132.496L141.849 133.655L140.81 36.572C140.763 32.0653 138.931 27.7611 135.717 24.6019C132.502 21.4427 128.167 19.6859 123.66 19.7161V19.7161ZM112.307 136.033L47.0833 155.786L22.392 74.2571C21.9554 72.8156 22.1094 71.2597 22.82 69.9316C23.5306 68.6036 24.7397 67.6123 26.1812 67.1757L80.5339 50.7148C81.9755 50.2783 83.5314 50.4322 84.8594 51.1428C86.1874 51.8534 87.1787 53.0625 87.6153 54.504L112.307 136.033ZM129.455 36.6942L130.355 121.566L119.589 120.892L98.4858 51.2118C97.1761 46.8873 94.2021 43.2601 90.2181 41.1283C86.2341 38.9965 81.5663 38.5346 77.2418 39.8443L62.186 44.404L62.1662 36.8147C62.1533 36.0663 62.2895 35.3227 62.5669 34.6274C62.8443 33.9322 63.2574 33.2991 63.782 32.7651C64.2933 32.2344 64.9049 31.8105 65.5813 31.5181C66.2577 31.2256 66.9855 31.0704 67.7224 31.0614L123.705 31.0537C124.454 31.0445 125.197 31.1832 125.891 31.4621C126.586 31.7409 127.219 32.1543 127.753 32.6785C128.287 33.2027 128.713 33.8273 129.005 34.5165C129.297 35.2056 129.45 35.9457 129.455 36.6942V36.6942ZM86.6213 90.4078C90.4616 103.088 73.1106 124.168 73.1106 124.168C73.1106 124.168 46.9794 116.257 43.1391 103.577C42.2659 100.693 42.5738 97.5817 43.9951 94.9256C45.4163 92.2696 47.8344 90.2869 50.7174 89.4138C53.6005 88.5407 56.7123 88.8486 59.3683 90.2698C62.0244 91.691 64.007 94.1091 64.8802 96.9922C64.007 94.1091 64.3149 90.9973 65.7362 88.3413C67.1574 85.6853 69.5755 83.7026 72.4585 82.8294C75.3416 81.9563 78.4534 82.2642 81.1094 83.6854C83.7655 85.1066 85.7481 87.5248 86.6213 90.4078V90.4078Z" fill="#587BF6"/>
</g>
<defs>
<clipPath id="clip0_757_7891">
<rect width="136.298" height="136.298" fill="white" transform="translate(0 39.5059) rotate(-16.8491)"/>
</clipPath>
</defs>
</svg>
